# xmcd
# 
# Track frame offsets:
#     150
#     22075
#     42585
#     64552
# 
# Disc length: 1132
# 
# Revision: 1
# Processed by: cddbd v1.5.2PL0 Copyright (c) Steve Scherf et al.
# Submitted via: fre:ac v1.0.17
# 
DISCID=31046a04
DTITLE=中山美穂 - Thinking about you －あなたの夜を包みたい－
DYEAR=1996
DGENRE=J-Pop
TTITLE0=Thinking about you －あなたの夜を包みたい－
TTITLE1=Angel
TTITLE2=Thinking about you －あなたの夜を包みたい－(Original Karaoke)
TTITLE3=Angel(Original Karaoke)
EXTD=
EXTT0=
EXTT1=
EXTT2=
EXTT3=
PLAYORDER=
